<?xml version="1.0" encoding="UTF-8"?>
<svg id="_都市" data-name="都市" xmlns="http://www.w3.org/2000/svg" viewBox="0 0 240 240">
  <defs>
    <style>
      .cls-1 {
        fill: #ea5554;
      }

      .cls-2 {
        fill: #842e1f;
      }
    </style>
  </defs>
  <path class="cls-1" d="M120.11,214.37c-15.25-26.53-1.04-57.36,3.78-66.34l.45-.83-24.78-34.11-1.23,1.04c-6.28,5.31-16.19,11.63-27.69,11.63-6.55,0-12.96-2.06-19.05-6.12L120,25.47l68.68,94.53-68.57,94.37Z"/>
  <path class="cls-2" d="M120,28.02l66.83,91.98-66.53,91.57c-4.56-8.89-6.33-19.07-5.27-30.35,1.27-13.51,6.24-25.12,10.19-32.48l.89-1.66-1.11-1.52-23.28-32.04-1.9-2.61-2.47,2.08c-6.09,5.14-15.67,11.28-26.72,11.28-5.78,0-11.46-1.69-16.91-5.03L120,28.02M120,22.92L49.47,120c7.19,5.15,14.33,7.26,21.17,7.26,10.66,0,20.56-5.15,28.66-11.98l23.28,32.04c-10.32,19.23-16.91,47.16-2.57,69.76l70.53-97.08L120,22.92h0Z"/>
</svg>